<svg width="736" height="549" viewBox="0 0 736 549" fill="none" xmlns="http://www.w3.org/2000/svg">
<circle cx="561.5" cy="303" r="246" fill="#2BB32A"/>
<g filter="url(#filter0_d_1_61)">
<g filter="url(#filter1_b_1_61)">
<rect x="104.618" y="10" width="551.298" height="348.188" rx="32" transform="rotate(15 104.618 10)" fill="url(#paint0_linear_1_61)" fill-opacity="0.37"/>
<rect x="104.618" y="10" width="551.298" height="348.188" rx="32" transform="rotate(15 104.618 10)" stroke="url(#paint1_linear_1_61)" stroke-opacity="0.5" stroke-width="2"/>
</g>
<path d="M96.4211 269.188L99.0662 259.316L100.865 259.798L103.388 268.069L103.415 268.076L105.314 260.99L106.991 261.439L104.346 271.311L102.547 270.829L100.037 262.562L100.01 262.555L98.1114 269.641L96.4211 269.188ZM108.069 272.454C107.366 272.265 106.862 271.928 106.558 271.44C106.265 270.946 106.207 270.37 106.383 269.712C106.603 268.892 107.092 268.346 107.851 268.076C108.609 267.806 109.579 267.829 110.76 268.145L111.747 268.41C111.839 268.067 111.864 267.794 111.822 267.589C111.792 267.378 111.683 267.209 111.495 267.081C111.316 266.956 111.041 266.844 110.672 266.745C110.221 266.624 109.74 266.544 109.229 266.503C108.727 266.465 108.24 266.48 107.768 266.547L107.903 265.177C108.409 265.129 108.954 265.13 109.54 265.181C110.125 265.231 110.698 265.331 111.257 265.481C111.969 265.672 112.505 265.907 112.865 266.187C113.233 266.47 113.454 266.838 113.525 267.292C113.597 267.746 113.543 268.307 113.364 268.974L112.176 273.409L110.594 272.985L110.798 272.17L110.771 272.163C110.452 272.377 110.039 272.513 109.531 272.57C109.025 272.618 108.538 272.579 108.069 272.454ZM109.012 271.315C109.346 271.404 109.668 271.428 109.979 271.386C110.292 271.334 110.558 271.227 110.776 271.063C110.993 270.899 111.137 270.686 111.207 270.425L111.436 269.573L110.692 269.374C109.917 269.166 109.303 269.113 108.851 269.214C108.41 269.308 108.134 269.563 108.023 269.977C107.941 270.284 107.983 270.556 108.152 270.795C108.32 271.033 108.606 271.206 109.012 271.315ZM113.956 273.886L115.84 266.854L117.382 267.267L117.188 268.1L117.215 268.107C117.55 267.868 117.914 267.714 118.309 267.646C118.707 267.569 119.14 267.594 119.609 267.719C120.069 267.842 120.433 268.032 120.703 268.288C120.984 268.537 121.151 268.833 121.204 269.176L121.231 269.183C121.591 268.922 121.967 268.762 122.36 268.703C122.753 268.644 123.188 268.678 123.666 268.806C124.423 269.009 124.919 269.359 125.153 269.857C125.389 270.345 125.392 271.018 125.163 271.874L123.909 276.553L122.3 276.122L123.445 271.849C123.587 271.317 123.606 270.906 123.499 270.617C123.393 270.328 123.151 270.132 122.772 270.031C122.322 269.91 121.926 269.963 121.585 270.191C121.243 270.418 121.006 270.78 120.873 271.276L119.757 275.441L118.135 275.006L119.312 270.611C119.436 270.151 119.434 269.779 119.307 269.494C119.183 269.199 118.945 269.005 118.594 268.911C118.323 268.839 118.056 268.844 117.792 268.928C117.537 269.014 117.309 269.161 117.109 269.368C116.917 269.578 116.779 269.84 116.695 270.156L115.579 274.321L113.956 273.886ZM129.041 278.073C127.797 277.74 126.926 277.168 126.428 276.358C125.929 275.549 125.837 274.558 126.152 273.386C126.456 272.25 127.002 271.439 127.789 270.954C128.585 270.472 129.519 270.375 130.592 270.662C131.629 270.94 132.349 271.461 132.752 272.227C133.156 272.992 133.207 273.938 132.905 275.065C132.871 275.191 132.829 275.33 132.779 275.48C132.729 275.631 132.69 275.741 132.662 275.811L126.901 274.268L127.223 273.064L131.713 274.267L131.372 274.567C131.57 273.828 131.572 273.244 131.377 272.815C131.195 272.379 130.819 272.085 130.251 271.933C129.647 271.771 129.137 271.837 128.72 272.132C128.314 272.419 128.013 272.928 127.818 273.658L127.691 274.131C127.507 274.817 127.551 275.374 127.822 275.804C128.096 276.226 128.598 276.534 129.328 276.73C129.707 276.831 130.122 276.904 130.574 276.948C131.029 276.983 131.44 276.981 131.807 276.945L131.662 278.297C131.283 278.341 130.862 278.344 130.399 278.307C129.935 278.269 129.483 278.191 129.041 278.073Z" fill="#B9BEBD"/>
<path d="M130.674 159.855C129.601 159.568 128.731 159.117 128.065 158.504C127.398 157.89 126.959 157.149 126.747 156.281C126.544 155.415 126.584 154.455 126.867 153.4C127.152 152.336 127.597 151.484 128.204 150.845C128.821 150.199 129.572 149.777 130.456 149.579C131.34 149.381 132.319 149.426 133.391 149.713C134.617 150.041 135.632 150.599 136.437 151.384L135.646 152.767C134.866 151.997 133.999 151.485 133.043 151.229C132.331 151.038 131.675 151.016 131.075 151.165C130.477 151.304 129.967 151.602 129.545 152.059C129.123 152.516 128.812 153.119 128.611 153.867C128.413 154.607 128.381 155.284 128.516 155.9C128.653 156.507 128.944 157.024 129.39 157.453C129.838 157.873 130.418 158.178 131.13 158.369C132.059 158.617 133.066 158.607 134.153 158.338L134.147 159.931C133.057 160.209 131.9 160.184 130.674 159.855ZM135.617 161.035L137.502 154.003L139.097 154.431L138.756 155.759L138.783 155.767C139.099 155.523 139.444 155.335 139.818 155.203C140.203 155.065 140.604 154.994 141.02 154.989C141.439 154.976 141.861 155.026 142.284 155.14L141.9 156.573C141.332 156.421 140.785 156.39 140.258 156.481C139.74 156.574 139.292 156.768 138.914 157.063C138.547 157.351 138.303 157.72 138.182 158.171L137.294 161.484L135.617 161.035ZM144.522 163.566C143.277 163.232 142.406 162.661 141.908 161.851C141.41 161.041 141.318 160.05 141.632 158.878C141.937 157.742 142.482 156.932 143.269 156.447C144.065 155.965 145 155.867 146.073 156.155C147.109 156.432 147.83 156.954 148.233 157.719C148.637 158.484 148.688 159.43 148.386 160.557C148.352 160.684 148.31 160.822 148.26 160.973C148.21 161.124 148.171 161.234 148.142 161.304L142.382 159.76L142.704 158.557L147.194 159.76L146.852 160.06C147.051 159.32 147.052 158.736 146.858 158.307C146.675 157.872 146.3 157.578 145.732 157.426C145.128 157.264 144.617 157.33 144.2 157.624C143.795 157.912 143.494 158.42 143.299 159.151L143.172 159.624C142.988 160.309 143.032 160.867 143.303 161.297C143.577 161.718 144.079 162.027 144.809 162.222C145.188 162.324 145.603 162.396 146.055 162.44C146.51 162.475 146.921 162.474 147.288 162.437L147.143 163.79C146.764 163.833 146.343 163.836 145.879 163.799C145.416 163.762 144.963 163.684 144.522 163.566ZM151.394 165.407C150.457 165.156 149.812 164.64 149.461 163.86C149.109 163.08 149.088 162.113 149.397 160.959C149.707 159.805 150.208 158.978 150.903 158.478C151.597 157.978 152.413 157.854 153.351 158.105C153.82 158.23 154.222 158.425 154.557 158.689C154.892 158.953 155.148 159.277 155.325 159.663L155.365 159.674L156.347 156.009L157.984 156.447L155.339 166.319L153.783 165.902L153.977 165.07L153.95 165.063C153.607 165.3 153.209 165.449 152.758 165.512C152.317 165.568 151.863 165.533 151.394 165.407ZM152.189 164.171C152.541 164.265 152.871 164.276 153.18 164.205C153.498 164.135 153.772 163.996 154.002 163.787C154.232 163.578 154.39 163.316 154.474 163L154.815 161.729C154.902 161.405 154.897 161.099 154.8 160.812C154.705 160.516 154.542 160.26 154.31 160.043C154.078 159.826 153.782 159.67 153.421 159.573C152.853 159.421 152.358 159.501 151.937 159.813C151.524 160.128 151.218 160.654 151.02 161.394C150.822 162.133 150.823 162.742 151.023 163.221C151.233 163.702 151.621 164.019 152.189 164.171ZM159.654 158.605L160.081 157.009L161.758 157.459L161.331 159.054L159.654 158.605ZM157.436 166.881L159.31 159.89L160.986 160.339L159.113 167.331L157.436 166.881ZM164.326 168.872C163.496 168.65 162.942 168.318 162.665 167.876C162.387 167.435 162.352 166.826 162.56 166.051L163.538 162.4L161.969 161.979L162.324 160.654L163.893 161.075L164.509 158.776L166.186 159.225L165.57 161.524L167.936 162.158L167.581 163.483L165.215 162.849L164.349 166.081C164.228 166.532 164.215 166.867 164.311 167.086C164.419 167.298 164.662 167.455 165.04 167.556C165.239 167.61 165.451 167.647 165.677 167.669C165.903 167.691 166.11 167.693 166.298 167.676L166.081 169.082C165.75 169.09 165.445 169.076 165.165 169.039C164.885 169.003 164.605 168.947 164.326 168.872ZM176.155 172.042C175.082 171.754 174.213 171.304 173.546 170.691C172.879 170.077 172.44 169.336 172.229 168.468C172.026 167.602 172.066 166.641 172.348 165.587C172.633 164.523 173.079 163.671 173.685 163.032C174.303 162.385 175.054 161.963 175.938 161.765C176.822 161.567 177.8 161.612 178.873 161.9C180.099 162.228 181.114 162.785 181.918 163.571L181.127 164.953C180.348 164.184 179.48 163.671 178.525 163.415C177.813 163.224 177.156 163.203 176.556 163.352C175.958 163.491 175.448 163.789 175.026 164.246C174.604 164.703 174.293 165.306 174.093 166.054C173.895 166.793 173.863 167.471 173.997 168.087C174.134 168.693 174.426 169.211 174.871 169.64C175.319 170.059 175.899 170.365 176.612 170.555C177.54 170.804 178.548 170.794 179.634 170.525L179.628 172.117C178.539 172.396 177.381 172.37 176.155 172.042ZM182.66 173.785C181.957 173.597 181.453 173.259 181.149 172.771C180.856 172.277 180.798 171.701 180.974 171.043C181.194 170.223 181.683 169.677 182.442 169.407C183.2 169.137 184.17 169.16 185.351 169.477L186.338 169.741C186.43 169.398 186.455 169.125 186.413 168.92C186.383 168.709 186.273 168.54 186.085 168.412C185.906 168.287 185.632 168.175 185.262 168.076C184.812 167.955 184.331 167.875 183.82 167.834C183.318 167.796 182.831 167.811 182.359 167.878L182.494 166.508C183 166.46 183.545 166.461 184.131 166.512C184.716 166.562 185.289 166.662 185.847 166.812C186.56 167.003 187.096 167.239 187.455 167.519C187.824 167.801 188.044 168.169 188.116 168.623C188.188 169.077 188.134 169.638 187.955 170.305L186.767 174.74L185.185 174.316L185.389 173.501L185.362 173.494C185.043 173.708 184.63 173.844 184.122 173.901C183.616 173.949 183.129 173.911 182.66 173.785ZM183.603 172.646C183.937 172.736 184.259 172.759 184.57 172.717C184.883 172.665 185.149 172.558 185.366 172.394C185.584 172.23 185.728 172.017 185.798 171.756L186.027 170.904L185.283 170.705C184.507 170.497 183.894 170.444 183.441 170.545C183.001 170.639 182.725 170.894 182.614 171.308C182.531 171.615 182.574 171.887 182.742 172.126C182.911 172.364 183.197 172.537 183.603 172.646ZM188.547 175.217L190.431 168.185L192.027 168.613L191.685 169.942L191.712 169.949C192.029 169.705 192.374 169.518 192.747 169.386C193.132 169.247 193.533 169.176 193.95 169.172C194.369 169.158 194.79 169.208 195.214 169.322L194.83 170.755C194.262 170.603 193.715 170.573 193.188 170.663C192.67 170.756 192.222 170.95 191.843 171.245C191.476 171.533 191.232 171.903 191.112 172.354L190.224 175.667L188.547 175.217ZM196.559 177.509C195.621 177.258 194.977 176.742 194.625 175.962C194.274 175.182 194.253 174.215 194.562 173.061C194.871 171.907 195.373 171.08 196.067 170.58C196.762 170.08 197.578 169.955 198.515 170.207C198.984 170.332 199.386 170.527 199.721 170.791C200.057 171.054 200.313 171.379 200.489 171.765L200.53 171.776L201.512 168.111L203.148 168.549L200.503 178.421L198.948 178.004L199.142 177.172L199.115 177.165C198.771 177.401 198.374 177.551 197.922 177.613C197.482 177.669 197.028 177.635 196.559 177.509ZM197.354 176.273C197.705 176.367 198.036 176.378 198.345 176.306C198.663 176.237 198.937 176.098 199.167 175.889C199.397 175.68 199.554 175.418 199.639 175.102L199.979 173.831C200.066 173.506 200.061 173.201 199.964 172.914C199.869 172.618 199.706 172.362 199.474 172.145C199.243 171.928 198.946 171.772 198.586 171.675C198.018 171.523 197.523 171.603 197.101 171.915C196.688 172.229 196.383 172.756 196.185 173.495C195.987 174.235 195.988 174.844 196.188 175.323C196.397 175.804 196.786 176.121 197.354 176.273ZM206.351 179.988L208.996 170.116L210.795 170.598L213.318 178.869L213.345 178.876L215.244 171.79L216.921 172.24L214.276 182.111L212.477 181.629L209.967 173.362L209.94 173.355L208.042 180.441L206.351 179.988ZM219.392 183.627C218.256 183.323 217.462 182.772 217.009 181.974C216.568 181.17 216.503 180.186 216.814 179.023C217.126 177.86 217.673 177.045 218.455 176.578C219.248 176.105 220.213 176.021 221.349 176.325C222.485 176.629 223.278 177.185 223.729 177.992C224.182 178.789 224.252 179.77 223.941 180.933C223.629 182.096 223.077 182.914 222.283 183.387C221.492 183.852 220.528 183.932 219.392 183.627ZM219.747 182.302C220.37 182.469 220.895 182.402 221.323 182.101C221.754 181.791 222.072 181.253 222.277 180.487C222.483 179.721 222.475 179.1 222.254 178.626C222.036 178.142 221.616 177.817 220.994 177.65C220.381 177.486 219.854 177.557 219.415 177.865C218.986 178.165 218.669 178.699 218.464 179.465C218.259 180.231 218.265 180.856 218.483 181.34C218.713 181.817 219.134 182.138 219.747 182.302ZM224.314 184.801L224.825 182.894L226.745 183.409L226.234 185.316L224.314 184.801Z" fill="#B9BEBD"/>
<path d="M270.289 309.768L272.934 299.896L279.534 301.664L279.142 303.125L274.233 301.809L273.552 304.352L278.191 305.595L277.806 307.028L273.168 305.785L272.371 308.76L277.28 310.076L276.888 311.536L270.289 309.768ZM277.972 311.826L281.153 308.881L279.883 304.802L281.723 305.295L282.507 308.317L282.534 308.324L284.725 306.099L286.564 306.592L283.425 309.49L284.707 313.631L282.867 313.138L282.067 310.068L282.04 310.061L279.825 312.323L277.972 311.826ZM291.936 307.886C292.874 308.138 293.518 308.653 293.87 309.434C294.221 310.214 294.242 311.181 293.933 312.335C293.624 313.489 293.122 314.316 292.428 314.816C291.733 315.316 290.917 315.44 289.98 315.189C289.52 315.066 289.118 314.871 288.774 314.605C288.441 314.332 288.185 314.007 288.006 313.631L287.979 313.624L286.997 317.288L285.333 316.843L287.978 306.971L289.561 307.395L289.353 308.223L289.38 308.231C289.735 307.988 290.133 307.838 290.573 307.782C291.013 307.726 291.468 307.761 291.936 307.886ZM291.141 309.123C290.799 309.031 290.468 309.02 290.15 309.089C289.832 309.158 289.558 309.298 289.328 309.507C289.11 309.709 288.957 309.972 288.87 310.297L288.529 311.568C288.445 311.884 288.445 312.188 288.531 312.482C288.626 312.778 288.793 313.035 289.034 313.254C289.275 313.473 289.567 313.629 289.909 313.721C290.486 313.875 290.981 313.795 291.394 313.481C291.807 313.166 292.112 312.639 292.31 311.9C292.508 311.161 292.507 310.552 292.307 310.073C292.107 309.594 291.718 309.277 291.141 309.123ZM294.313 316.205L294.824 314.298L296.745 314.813L296.234 316.72L294.313 316.205Z" fill="#B9BEBD"/>
<path d="M263.549 351.074C262.421 350.772 261.678 350.192 261.32 349.334C260.962 348.476 260.98 347.309 261.376 345.833C261.771 344.357 262.339 343.337 263.078 342.774C263.817 342.21 264.751 342.079 265.879 342.381C267.007 342.683 267.746 343.263 268.097 344.118C268.455 344.976 268.436 346.143 268.041 347.619C267.645 349.095 267.078 350.115 266.339 350.679C265.607 351.245 264.678 351.377 263.549 351.074ZM263.894 349.788C264.536 349.96 265.069 349.838 265.496 349.422C265.922 349.006 266.276 348.273 266.557 347.222C266.841 346.163 266.901 345.351 266.738 344.785C266.577 344.212 266.175 343.84 265.534 343.668C264.893 343.496 264.355 343.617 263.921 344.031C263.497 344.439 263.143 345.172 262.86 346.231C262.578 347.282 262.518 348.094 262.679 348.667C262.848 349.242 263.253 349.616 263.894 349.788ZM273.327 344.377C274.023 344.563 274.577 344.844 274.99 345.22C275.402 345.596 275.664 346.055 275.776 346.598C275.894 347.144 275.859 347.772 275.668 348.483C275.382 349.549 274.924 350.424 274.294 351.108C273.673 351.787 272.919 352.252 272.032 352.503C271.145 352.753 270.156 352.766 269.065 352.54L269.124 351.301C270.096 351.504 270.932 351.508 271.63 351.314C272.33 351.112 272.916 350.702 273.388 350.083L273.368 350.065C273.047 350.153 272.716 350.197 272.376 350.197C272.044 350.199 271.693 350.151 271.322 350.051C270.464 349.821 269.855 349.389 269.496 348.754C269.143 348.122 269.086 347.361 269.324 346.472C269.49 345.854 269.759 345.359 270.132 344.987C270.505 344.615 270.962 344.377 271.504 344.273C272.047 344.162 272.655 344.197 273.327 344.377ZM272.995 345.617C272.423 345.464 271.942 345.497 271.552 345.715C271.172 345.928 270.911 346.301 270.768 346.834C270.625 347.367 270.656 347.823 270.861 348.201C271.076 348.573 271.454 348.832 271.995 348.977C272.381 349.08 272.73 349.108 273.042 349.059C273.355 349.002 273.618 348.869 273.831 348.661C274.054 348.448 274.211 348.171 274.302 347.831C274.383 347.53 274.397 347.231 274.344 346.935C274.298 346.641 274.166 346.378 273.946 346.145C273.737 345.907 273.42 345.731 272.995 345.617ZM274.759 354.451L281.402 346.168L282.816 346.547L276.174 354.83L274.759 354.451ZM284.585 356.587L286.417 349.748L286.394 349.742L282.958 350.697L282.879 349.322L286.852 348.125L288.324 348.52L286.057 356.981L284.585 356.587ZM292.033 358.582L293.866 351.744L293.842 351.737L290.406 352.693L290.327 351.317L294.3 350.121L295.772 350.515L293.505 358.977L292.033 358.582Z" fill="white"/>
<path d="M87.0659 303.662L89.3331 295.2L91.8832 295.884C93.1273 296.217 93.9814 296.661 94.4456 297.216C94.9175 297.773 95.0364 298.489 94.8025 299.362C94.5726 300.22 94.1226 300.786 93.4523 301.062C92.7898 301.34 91.8944 301.328 90.7662 301.026L88.6103 300.448L88.9085 299.335L90.8789 299.863C91.6671 300.075 92.2641 300.119 92.6698 299.995C93.0853 299.867 93.3593 299.555 93.4918 299.06C93.6243 298.566 93.5419 298.163 93.2444 297.851C92.9567 297.534 92.4187 297.27 91.6306 297.058L90.2976 296.701L88.3409 304.004L87.0659 303.662ZM92.0153 304.988L89.216 300.089L90.8271 300.52L93.6728 305.432L92.0153 304.988ZM95.0574 305.803L97.3247 297.342L102.888 298.833L102.584 299.968L98.2953 298.819L97.6679 301.161L101.725 302.248L101.427 303.361L97.3698 302.273L96.6368 305.009L100.926 306.158L100.621 307.294L95.0574 305.803ZM107.608 309.166L109.876 300.705L111.151 301.046L108.883 309.508L107.608 309.166ZM102.392 307.769L104.66 299.307L105.935 299.649L103.667 308.11L102.392 307.769ZM104.061 304.091L104.372 302.932L109.588 304.33L109.277 305.489L104.061 304.091ZM110.025 309.814L115.375 302.178L117.102 302.641L117.907 311.926L116.504 311.55L115.953 303.501L115.929 303.495L111.427 310.19L110.025 309.814ZM112.193 308.121L112.503 306.962L117.198 308.22L116.887 309.379L112.193 308.121ZM119.043 312.23L121.311 303.769L122.701 304.141L125.027 311.597L125.05 311.604L126.758 305.229L128.033 305.57L125.766 314.032L124.375 313.659L122.05 306.203L122.027 306.197L120.318 312.572L119.043 312.23ZM130.985 315.43L133.253 306.969L135.803 307.652C137.047 307.985 137.901 308.429 138.365 308.985C138.837 309.542 138.956 310.257 138.722 311.13C138.492 311.988 138.042 312.555 137.372 312.83C136.709 313.108 135.814 313.096 134.686 312.794L132.53 312.216L132.828 311.104L134.798 311.632C135.587 311.843 136.184 311.887 136.589 311.764C137.005 311.635 137.279 311.323 137.411 310.828C137.544 310.334 137.461 309.931 137.164 309.619C136.876 309.302 136.338 309.038 135.55 308.827L134.217 308.469L132.26 315.772L130.985 315.43ZM135.935 316.756L133.135 311.857L134.747 312.289L137.592 317.2L135.935 316.756ZM138.142 317.348L143.493 309.712L145.22 310.175L146.024 319.46L144.622 319.084L144.07 311.035L144.047 311.029L139.545 317.724L138.142 317.348ZM140.31 315.655L140.621 314.496L145.315 315.754L145.005 316.913L140.31 315.655ZM147.265 319.792L149.532 311.331L150.854 311.685L148.587 320.146L147.265 319.792ZM155.875 322.099L158.142 313.638L159.417 313.979L157.15 322.441L155.875 322.099ZM150.659 320.702L152.926 312.24L154.201 312.582L151.934 321.043L150.659 320.702ZM152.327 317.024L152.638 315.865L157.854 317.263L157.543 318.422L152.327 317.024ZM158.291 322.747L163.641 315.111L165.368 315.574L166.173 324.859L164.77 324.483L164.219 316.434L164.196 316.428L159.693 323.122L158.291 322.747ZM160.459 321.054L160.769 319.895L165.464 321.153L165.153 322.312L160.459 321.054ZM167.309 325.163L169.577 316.702L170.968 317.074L173.293 324.53L173.316 324.536L175.024 318.161L176.3 318.503L174.032 326.965L172.641 326.592L170.316 319.136L170.293 319.13L168.584 325.505L167.309 325.163Z" fill="white"/>
<path fill-rule="evenodd" clip-rule="evenodd" d="M168.475 97.4585C172.643 95.2807 175.921 91.4326 177.234 86.5321C178.547 81.6315 177.632 76.66 175.112 72.6901C178.843 70.7411 183.288 70.1308 187.675 71.3062C196.962 73.7947 202.474 83.3411 199.985 92.6283C197.497 101.915 187.95 107.427 178.663 104.939C174.277 103.763 170.732 101.012 168.475 97.4585ZM168.475 97.4585C164.744 99.4075 160.298 100.018 155.912 98.8424C146.625 96.3539 141.113 86.8075 143.602 77.5203C146.09 68.2331 155.636 62.7215 164.924 65.21C169.31 66.3854 172.855 69.1368 175.112 72.6901C170.944 74.8678 167.666 78.716 166.353 83.6165C165.04 88.517 165.954 93.4885 168.475 97.4585Z" fill="white"/>
<path fill-rule="evenodd" clip-rule="evenodd" d="M581.476 177.174C582.412 176.824 583.454 177.298 583.805 178.233C585.672 183.214 587.325 191.298 586.242 199.518C585.151 207.795 581.259 216.319 571.947 221.777C571.085 222.282 569.977 221.993 569.471 221.131C568.966 220.27 569.255 219.161 570.117 218.656C578.239 213.896 581.672 206.507 582.655 199.046C583.646 191.528 582.121 184.047 580.418 179.503C580.067 178.568 580.541 177.525 581.476 177.174ZM572.186 181.553C573.121 181.201 574.164 181.673 574.517 182.608C575.837 186.115 577.006 191.79 576.246 197.574C575.479 203.415 572.717 209.473 566.09 213.344C565.227 213.848 564.119 213.557 563.616 212.694C563.112 211.832 563.403 210.724 564.265 210.22C569.7 207.046 572 202.124 572.659 197.103C573.327 192.024 572.288 186.953 571.131 183.883C570.779 182.948 571.251 181.905 572.186 181.553ZM564.482 186.984C565.415 186.627 566.461 187.095 566.817 188.028C567.543 189.927 568.185 192.976 567.778 196.104C567.364 199.292 565.832 202.662 562.131 204.799C561.266 205.299 560.159 205.003 559.66 204.137C559.16 203.272 559.457 202.166 560.322 201.667C562.823 200.223 563.884 197.994 564.191 195.638C564.505 193.222 563.997 190.781 563.438 189.319C563.081 188.386 563.549 187.34 564.482 186.984Z" fill="white"/>
<path d="M117.079 207.907L121.758 190.443L121.696 190.426L113.599 194.187L114.958 189.118L123.125 185.343L127.576 186.536L121.53 209.1L117.079 207.907ZM132.327 212.324C130.596 211.86 129.285 211.189 128.395 210.31C127.524 209.436 127.035 208.256 126.925 206.769C126.836 205.287 127.095 203.413 127.703 201.146C128.558 197.952 129.669 195.456 131.034 193.657C132.405 191.838 134.089 190.666 136.085 190.141C138.081 189.615 140.444 189.697 143.175 190.384L142.148 194.217C140.912 193.886 139.744 193.794 138.644 193.941C137.55 194.067 136.611 194.401 135.825 194.941C135.04 195.482 134.479 196.215 134.143 197.141L134.266 197.174C134.926 197.019 135.53 196.949 136.079 196.964C136.627 196.978 137.2 197.065 137.797 197.225C139.776 197.755 141.065 198.753 141.667 200.217C142.295 201.666 142.269 203.658 141.59 206.192C140.822 209.057 139.714 210.968 138.264 211.927C136.841 212.871 134.862 213.003 132.327 212.324ZM133.352 208.623C134.279 208.872 135.048 208.724 135.657 208.181C136.272 207.617 136.767 206.634 137.143 205.233C137.518 203.832 137.578 202.743 137.322 201.968C137.071 201.172 136.482 200.65 135.555 200.401C134.628 200.153 133.857 200.311 133.242 200.875C132.632 201.418 132.14 202.39 131.764 203.792C131.389 205.193 131.326 206.291 131.577 207.087C131.833 207.863 132.425 208.375 133.352 208.623ZM150.482 206.389C149.823 206.212 149.35 205.875 149.063 205.379C148.776 204.883 148.719 204.315 148.89 203.676C149.066 203.017 149.4 202.554 149.891 202.288C150.388 202.001 150.966 201.946 151.625 202.123C152.284 202.3 152.757 202.636 153.044 203.133C153.336 203.609 153.394 204.176 153.217 204.836C153.046 205.474 152.712 205.937 152.216 206.224C151.719 206.51 151.141 206.565 150.482 206.389ZM147.782 216.465C146.072 216.007 144.803 215.302 143.975 214.352C143.153 213.381 142.725 212.051 142.692 210.364C142.658 208.676 142.989 206.534 143.685 203.938L144.182 202.083C144.883 199.466 145.667 197.446 146.535 196.022C147.408 194.577 148.44 193.65 149.632 193.241C150.829 192.811 152.283 192.825 153.994 193.283C155.683 193.736 156.939 194.448 157.761 195.419C158.609 196.375 159.05 197.697 159.084 199.384C159.123 201.051 158.792 203.193 158.091 205.81L157.594 207.665C156.898 210.261 156.114 212.282 155.241 213.726C154.368 215.171 153.323 216.106 152.104 216.53C150.913 216.94 149.472 216.918 147.782 216.465ZM148.809 212.632C149.51 212.82 150.085 212.775 150.534 212.498C150.984 212.221 151.406 211.595 151.8 210.618C152.221 209.626 152.696 208.141 153.226 206.163L153.557 204.927C154.087 202.949 154.415 201.435 154.542 200.387C154.694 199.323 154.645 198.559 154.394 198.095C154.143 197.63 153.667 197.303 152.967 197.116C152.287 196.934 151.712 196.978 151.241 197.25C150.792 197.527 150.356 198.161 149.936 199.153C149.542 200.129 149.08 201.607 148.55 203.585L148.219 204.821C147.688 206.8 147.347 208.32 147.195 209.384C147.068 210.432 147.131 211.189 147.382 211.654C147.653 212.124 148.129 212.45 148.809 212.632ZM158.132 214.932C159.936 213.803 161.48 212.781 162.763 211.866C164.052 210.93 165.122 210.068 165.973 209.281C166.83 208.472 167.498 207.712 167.976 207.001C168.453 206.29 168.786 205.584 168.974 204.883C169.266 203.791 169.245 202.924 168.909 202.282C168.573 201.64 167.9 201.183 166.89 200.913C165.572 200.559 163.914 200.524 161.917 200.806L162.993 196.788C164.721 196.522 166.698 196.687 168.923 197.283C171.169 197.885 172.674 198.863 173.438 200.216C174.207 201.548 174.288 203.348 173.681 205.615C173.427 206.562 173.033 207.495 172.5 208.412C171.994 209.315 171.334 210.209 170.523 211.096C169.711 211.983 168.757 212.864 167.66 213.741C166.585 214.624 165.346 215.495 163.945 216.357L163.912 216.48L170.495 218.244L169.502 221.954L157.138 218.641L158.132 214.932ZM212.301 222.953C211.642 222.776 211.169 222.44 210.882 221.943C210.596 221.447 210.538 220.879 210.709 220.241C210.886 219.581 211.22 219.118 211.71 218.852C212.207 218.566 212.785 218.511 213.444 218.688C214.104 218.864 214.577 219.201 214.863 219.697C215.155 220.173 215.213 220.741 215.036 221.4C214.865 222.039 214.531 222.502 214.035 222.788C213.539 223.075 212.961 223.13 212.301 222.953ZM209.601 233.03C207.891 232.571 206.622 231.867 205.795 230.916C204.973 229.945 204.545 228.616 204.511 226.928C204.477 225.241 204.808 223.099 205.504 220.502L206.001 218.648C206.702 216.031 207.486 214.01 208.354 212.586C209.227 211.142 210.259 210.215 211.451 209.805C212.649 209.375 214.103 209.389 215.813 209.847C217.503 210.3 218.758 211.012 219.58 211.983C220.429 212.939 220.87 214.261 220.903 215.949C220.942 217.616 220.611 219.758 219.91 222.375L219.413 224.229C218.718 226.826 217.933 228.846 217.06 230.291C216.187 231.735 215.142 232.67 213.924 233.095C212.732 233.504 211.291 233.482 209.601 233.03ZM210.628 229.197C211.329 229.385 211.904 229.34 212.354 229.063C212.803 228.786 213.225 228.159 213.62 227.182C214.04 226.191 214.515 224.706 215.045 222.728L215.376 221.491C215.906 219.513 216.235 218 216.361 216.951C216.513 215.888 216.464 215.124 216.213 214.659C215.962 214.194 215.487 213.868 214.786 213.68C214.106 213.498 213.531 213.543 213.06 213.814C212.611 214.091 212.176 214.726 211.755 215.717C211.361 216.694 210.899 218.171 210.369 220.149L210.038 221.386C209.508 223.364 209.166 224.885 209.014 225.948C208.888 226.997 208.95 227.753 209.201 228.218C209.472 228.688 209.948 229.015 210.628 229.197ZM231.268 213.988C233.019 214.458 234.33 215.129 235.2 216.003C236.071 216.877 236.55 218.054 236.639 219.536C236.749 221.023 236.5 222.9 235.892 225.166C235.042 228.34 233.931 230.836 232.56 232.655C231.19 234.474 229.506 235.647 227.51 236.172C225.535 236.703 223.171 236.622 220.42 235.928L221.447 232.096C222.704 232.432 223.869 232.535 224.942 232.403C226.042 232.256 226.984 231.912 227.77 231.371C228.56 230.81 229.121 230.077 229.452 229.172L229.328 229.139C228.669 229.293 228.065 229.363 227.516 229.349C226.968 229.335 226.395 229.247 225.798 229.087C223.819 228.557 222.516 227.567 221.889 226.118C221.287 224.654 221.326 222.655 222.005 220.12C222.773 217.256 223.868 215.352 225.292 214.408C226.741 213.449 228.733 213.309 231.268 213.988ZM230.243 217.689C229.316 217.441 228.545 217.599 227.93 218.163C227.32 218.706 226.828 219.679 226.452 221.08C226.077 222.481 226.014 223.58 226.265 224.376C226.521 225.151 227.113 225.663 228.04 225.911C228.967 226.16 229.736 226.012 230.345 225.469C230.96 224.905 231.455 223.922 231.831 222.521C232.206 221.12 232.266 220.031 232.01 219.256C231.759 218.46 231.17 217.938 230.243 217.689ZM240.717 241.036L245.397 223.572L245.335 223.555L237.238 227.316L238.596 222.247L246.763 218.472L251.214 219.664L245.168 242.228L240.717 241.036ZM256.172 245.177L260.852 227.713L260.79 227.696L252.693 231.457L254.051 226.388L262.218 222.613L266.669 223.806L260.623 246.37L256.172 245.177ZM297.225 252.202C299.029 251.073 300.573 250.051 301.856 249.136C303.145 248.2 304.215 247.338 305.067 246.551C305.924 245.742 306.591 244.982 307.069 244.271C307.547 243.56 307.879 242.854 308.067 242.153C308.36 241.061 308.338 240.194 308.002 239.552C307.666 238.91 306.993 238.453 305.984 238.183C304.665 237.829 303.007 237.794 301.01 238.076L302.087 234.058C303.814 233.792 305.791 233.957 308.016 234.553C310.262 235.155 311.767 236.133 312.531 237.486C313.301 238.818 313.382 240.618 312.774 242.884C312.52 243.832 312.127 244.765 311.594 245.682C311.087 246.585 310.428 247.479 309.616 248.366C308.804 249.253 307.85 250.134 306.754 251.011C305.678 251.894 304.439 252.765 303.038 253.627L303.005 253.75L309.589 255.514L308.595 259.224L296.231 255.911L297.225 252.202ZM320.485 251.941C319.826 251.764 319.353 251.428 319.066 250.931C318.779 250.435 318.722 249.867 318.893 249.228C319.069 248.569 319.403 248.106 319.894 247.84C320.391 247.554 320.968 247.499 321.628 247.675C322.287 247.852 322.76 248.189 323.047 248.685C323.339 249.161 323.397 249.728 323.22 250.388C323.049 251.027 322.715 251.489 322.219 251.776C321.722 252.063 321.144 252.117 320.485 251.941ZM317.785 262.017C316.075 261.559 314.806 260.855 313.978 259.904C313.156 258.933 312.728 257.604 312.695 255.916C312.661 254.228 312.992 252.086 313.688 249.49L314.185 247.635C314.886 245.018 315.67 242.998 316.538 241.574C317.411 240.129 318.443 239.202 319.635 238.793C320.832 238.363 322.286 238.377 323.997 238.835C325.686 239.288 326.942 240 327.764 240.971C328.612 241.927 329.053 243.249 329.087 244.936C329.126 246.603 328.795 248.745 328.094 251.362L327.597 253.217C326.901 255.813 326.117 257.834 325.244 259.279C324.371 260.723 323.325 261.658 322.107 262.082C320.916 262.492 319.475 262.47 317.785 262.017ZM318.812 258.185C319.513 258.372 320.088 258.328 320.537 258.051C320.987 257.773 321.409 257.147 321.803 256.17C322.224 255.178 322.699 253.693 323.229 251.715L323.56 250.479C324.09 248.501 324.418 246.987 324.545 245.939C324.697 244.876 324.648 244.111 324.397 243.647C324.146 243.182 323.67 242.856 322.97 242.668C322.29 242.486 321.714 242.53 321.244 242.802C320.794 243.079 320.359 243.713 319.939 244.705C319.545 245.682 319.083 247.159 318.553 249.137L318.221 250.374C317.691 252.352 317.35 253.873 317.198 254.936C317.071 255.984 317.134 256.741 317.385 257.206C317.656 257.676 318.132 258.002 318.812 258.185ZM333.446 265.882L338.126 248.419L338.064 248.402L329.967 252.162L331.325 247.093L339.492 243.318L343.943 244.511L337.897 267.075L333.446 265.882ZM354.906 247.117C356.658 247.587 357.969 248.258 358.839 249.132C359.709 250.005 360.189 251.183 360.278 252.665C360.387 254.152 360.138 256.028 359.531 258.295C358.68 261.468 357.57 263.965 356.199 265.784C354.828 267.603 353.145 268.775 351.149 269.301C349.173 269.832 346.81 269.75 344.058 269.057L345.085 265.224C346.342 265.561 347.507 265.664 348.581 265.532C349.68 265.385 350.623 265.041 351.408 264.5C352.199 263.939 352.76 263.206 353.091 262.301L352.967 262.268C352.307 262.422 351.703 262.492 351.155 262.478C350.607 262.463 350.034 262.376 349.436 262.216C347.458 261.686 346.155 260.696 345.527 259.247C344.926 257.783 344.965 255.783 345.644 253.249C346.411 250.385 347.507 248.481 348.93 247.537C350.38 246.578 352.372 246.438 354.906 247.117ZM353.881 250.818C352.954 250.57 352.183 250.728 351.568 251.292C350.959 251.835 350.466 252.807 350.091 254.209C349.715 255.61 349.653 256.708 349.903 257.504C350.159 258.28 350.751 258.792 351.678 259.04C352.606 259.289 353.374 259.141 353.983 258.598C354.598 258.034 355.094 257.051 355.469 255.65C355.845 254.248 355.904 253.16 355.648 252.385C355.398 251.589 354.809 251.067 353.881 250.818ZM389.954 277.048C391.758 275.919 393.302 274.897 394.585 273.982C395.874 273.047 396.944 272.185 397.796 271.397C398.653 270.589 399.32 269.829 399.798 269.118C400.275 268.406 400.608 267.701 400.796 267C401.089 265.908 401.067 265.041 400.731 264.398C400.395 263.756 399.722 263.3 398.713 263.029C397.394 262.676 395.736 262.64 393.739 262.922L394.815 258.904C396.543 258.638 398.52 258.804 400.745 259.4C402.991 260.002 404.496 260.979 405.26 262.332C406.029 263.665 406.11 265.464 405.503 267.731C405.249 268.679 404.856 269.612 404.323 270.529C403.816 271.431 403.157 272.326 402.345 273.212C401.533 274.099 400.579 274.981 399.483 275.858C398.407 276.74 397.168 277.612 395.767 278.473L395.734 278.597L402.318 280.361L401.324 284.07L388.96 280.757L389.954 277.048ZM413.214 276.787C412.554 276.611 412.081 276.274 411.795 275.778C411.508 275.281 411.45 274.714 411.622 274.075C411.798 273.415 412.132 272.953 412.623 272.687C413.119 272.4 413.697 272.345 414.357 272.522C415.016 272.699 415.489 273.035 415.776 273.532C416.068 274.007 416.126 274.575 415.949 275.234C415.778 275.873 415.444 276.336 414.948 276.623C414.451 276.909 413.873 276.964 413.214 276.787ZM410.514 286.864C408.803 286.406 407.535 285.701 406.707 284.751C405.885 283.78 405.457 282.45 405.424 280.763C405.39 279.075 405.721 276.933 406.417 274.337L406.913 272.482C407.615 269.865 408.399 267.845 409.266 266.421C410.139 264.976 411.172 264.049 412.364 263.639C413.561 263.209 415.015 263.223 416.725 263.682C418.415 264.134 419.671 264.846 420.493 265.818C421.341 266.774 421.782 268.096 421.816 269.783C421.855 271.45 421.524 273.592 420.823 276.209L420.326 278.064C419.63 280.66 418.846 282.681 417.973 284.125C417.1 285.57 416.054 286.504 414.836 286.929C413.644 287.338 412.204 287.317 410.514 286.864ZM411.541 283.031C412.241 283.219 412.817 283.174 413.266 282.897C413.716 282.62 414.138 281.993 414.532 281.017C414.952 280.025 415.428 278.54 415.958 276.562L416.289 275.326C416.819 273.347 417.147 271.834 417.274 270.786C417.426 269.722 417.377 268.958 417.126 268.493C416.875 268.029 416.399 267.702 415.698 267.515C415.018 267.332 414.443 267.377 413.973 267.649C413.523 267.926 413.088 268.56 412.668 269.552C412.274 270.528 411.812 272.006 411.282 273.984L410.95 275.22C410.42 277.198 410.079 278.719 409.927 279.783C409.8 280.831 409.863 281.588 410.114 282.052C410.385 282.523 410.861 282.849 411.541 283.031ZM420.863 285.33C422.668 284.202 424.211 283.18 425.495 282.265C426.783 281.329 427.854 280.467 428.705 279.679C429.562 278.871 430.23 278.111 430.707 277.4C431.185 276.689 431.518 275.983 431.706 275.282C431.998 274.19 431.977 273.323 431.641 272.681C431.305 272.039 430.632 271.582 429.622 271.312C428.303 270.958 426.645 270.923 424.648 271.205L425.725 267.186C427.453 266.921 429.429 267.086 431.655 267.682C433.901 268.284 435.406 269.261 436.17 270.614C436.939 271.947 437.02 273.747 436.413 276.013C436.159 276.961 435.765 277.894 435.232 278.811C434.726 279.713 434.066 280.608 433.254 281.495C432.443 282.381 431.488 283.263 430.392 284.14C429.316 285.022 428.078 285.894 426.677 286.755L426.644 286.879L433.227 288.643L432.233 292.352L419.87 289.04L420.863 285.33ZM441.63 294.87L446.309 277.406L446.248 277.39L438.15 281.15L439.509 276.081L447.676 272.306L452.127 273.499L446.081 296.063L441.63 294.87Z" fill="white"/>
<path d="M478.315 386.649C478.544 385.795 479.422 385.288 480.276 385.517L493.42 389.039C494.274 389.268 494.78 390.145 494.551 390.999L491.913 400.847C491.753 401.444 491.264 401.895 490.657 402.007L483.247 403.376C482.773 403.463 482.284 403.332 481.917 403.019L476.184 398.129C475.714 397.728 475.517 397.093 475.676 396.497L478.315 386.649Z" fill="white"/>
<path d="M503.056 393.278C503.285 392.424 504.163 391.917 505.017 392.146L508.883 393.182C509.737 393.411 510.243 394.289 510.015 395.143L509.186 398.235C508.957 399.089 508.079 399.596 507.225 399.367L503.36 398.331C502.506 398.103 501.999 397.225 502.228 396.371L503.056 393.278Z" fill="white"/>
<path d="M518.519 397.422C518.748 396.568 519.626 396.061 520.48 396.29L533.624 399.811C534.478 400.04 534.985 400.918 534.756 401.772L532.27 411.05C532.041 411.904 531.163 412.411 530.309 412.182L517.165 408.66C516.311 408.431 515.805 407.553 516.033 406.699L518.519 397.422Z" fill="white"/>
<path d="M473.965 402.885C474.193 402.031 475.071 401.524 475.925 401.753L489.069 405.275C489.923 405.504 490.43 406.382 490.201 407.236L487.715 416.514C487.486 417.368 486.608 417.874 485.754 417.646L472.611 414.124C471.757 413.895 471.25 413.017 471.479 412.163L473.965 402.885Z" fill="white"/>
<path d="M495.724 402.086C495.953 401.232 496.831 400.725 497.685 400.954L510.828 404.476C511.682 404.705 512.189 405.583 511.96 406.437L506.16 428.085C505.931 428.939 505.053 429.446 504.199 429.217L491.055 425.695C490.201 425.467 489.695 424.589 489.923 423.735L495.724 402.086Z" fill="white"/>
<path d="M514.169 413.658C514.398 412.804 515.276 412.297 516.13 412.526L529.273 416.048C530.127 416.277 530.634 417.154 530.405 418.008L527.919 427.286C527.69 428.14 526.813 428.647 525.959 428.418L512.815 424.896C511.961 424.668 511.454 423.79 511.683 422.936L514.169 413.658Z" fill="white"/>
<path d="M469.614 419.122C469.843 418.268 470.721 417.761 471.575 417.99L484.718 421.511C485.572 421.74 486.079 422.618 485.85 423.472L483.364 432.75C483.136 433.604 482.258 434.111 481.404 433.882L468.26 430.36C467.406 430.131 466.899 429.253 467.128 428.399L469.614 419.122Z" fill="white"/>
<path d="M492.698 431.936C492.927 431.082 493.805 430.575 494.659 430.804L498.524 431.84C499.378 432.069 499.885 432.947 499.656 433.801L498.828 436.893C498.599 437.747 497.721 438.254 496.867 438.025L493.001 436.989C492.147 436.761 491.64 435.883 491.869 435.029L492.698 431.936Z" fill="white"/>
<path d="M509.971 429.324C510.131 428.728 510.619 428.276 511.227 428.164L518.637 426.796C519.111 426.708 519.6 426.839 519.967 427.152L525.7 432.042C526.17 432.443 526.367 433.078 526.207 433.675L523.569 443.523C523.34 444.377 522.462 444.883 521.608 444.655L508.464 441.133C507.61 440.904 507.104 440.026 507.332 439.172L509.971 429.324Z" fill="white"/>
</g>
<defs>
<filter id="filter0_d_1_61" x="0.684082" y="0.18364" width="650.263" height="506.643" filterUnits="userSpaceOnUse" color-interpolation-filters="sRGB">
<feFlood flood-opacity="0" result="BackgroundImageFix"/>
<feColorMatrix in="SourceAlpha" type="matrix" values="0 0 0 0 0 0 0 0 0 0 0 0 0 0 0 0 0 0 127 0" result="hardAlpha"/>
<feOffset dy="4"/>
<feGaussianBlur stdDeviation="10"/>
<feComposite in2="hardAlpha" operator="out"/>
<feColorMatrix type="matrix" values="0 0 0 0 0 0 0 0 0 0 0 0 0 0 0 0 0 0 0.25 0"/>
<feBlend mode="normal" in2="BackgroundImageFix" result="effect1_dropShadow_1_61"/>
<feBlend mode="normal" in="SourceGraphic" in2="effect1_dropShadow_1_61" result="shape"/>
</filter>
<filter id="filter1_b_1_61" x="-54.3159" y="-58.8164" width="760.263" height="616.643" filterUnits="userSpaceOnUse" color-interpolation-filters="sRGB">
<feFlood flood-opacity="0" result="BackgroundImageFix"/>
<feGaussianBlur in="BackgroundImageFix" stdDeviation="37.5"/>
<feComposite in2="SourceAlpha" operator="in" result="effect1_backgroundBlur_1_61"/>
<feBlend mode="normal" in="SourceGraphic" in2="effect1_backgroundBlur_1_61" result="shape"/>
</filter>
<linearGradient id="paint0_linear_1_61" x1="168.595" y1="34.7861" x2="659.281" y2="357.276" gradientUnits="userSpaceOnUse">
<stop stop-color="white"/>
<stop offset="1" stop-color="white" stop-opacity="0"/>
</linearGradient>
<linearGradient id="paint1_linear_1_61" x1="145.24" y1="25.9586" x2="439.749" y2="358.188" gradientUnits="userSpaceOnUse">
<stop stop-color="white"/>
<stop offset="1" stop-color="white" stop-opacity="0.55"/>
</linearGradient>
</defs>
</svg>
